<?xml version="1.0" encoding="UTF-8" standalone="no"?>
<!DOCTYPE svg PUBLIC "-//W3C//DTD SVG 1.1//EN" "http://www.w3.org/Graphics/SVG/1.1/DTD/svg11.dtd">
<svg width="100%" height="100%" viewBox="0 0 800 200" version="1.1" xmlns="http://www.w3.org/2000/svg" xmlns:xlink="http://www.w3.org/1999/xlink" xml:space="preserve" xmlns:serif="http://www.serif.com/" style="fill-rule:evenodd;clip-rule:evenodd;stroke-linecap:round;stroke-linejoin:round;stroke-miterlimit:1.5;">
    <g transform="matrix(0.2125,0,0,0.2125,116.819,97.7637)">
        <g transform="matrix(1,0,0,1,-400,-400)">
            <path d="M340.458,139.796C376.38,150.479 393.062,201.124 377.687,252.823C362.313,304.521 320.666,337.82 284.744,327.137C248.822,316.454 232.14,265.808 247.515,214.11C262.89,162.412 304.536,129.113 340.458,139.796Z" style="fill:rgb(235,235,235);fill-opacity:0;stroke:rgb(129,0,0);stroke-width:35px;"/>
            <ellipse cx="329.952" cy="200.343" rx="3.259" ry="7.195" style="fill:rgb(235,235,235);fill-opacity:0;stroke:rgb(128,0,0);stroke-width:15px;"/>
            <path d="M278.181,107.017C251.92,59.864 204.071,36.432 171.308,54.68C138.545,72.927 133.274,125.944 159.535,173.096C133.274,125.944 138.545,72.927 171.308,54.68C204.071,36.432 251.92,59.864 278.181,107.017Z" style="fill:rgb(235,235,235);fill-opacity:0;stroke:rgb(129,0,0);stroke-width:35px;"/>
            <path d="M513.68,752.975C639.87,752.975 742.168,659.692 742.168,544.623C742.168,429.63 639.786,336.271 513.68,336.271C474.448,336.271 435.877,345.482 401.682,363.018C435.877,345.482 474.448,336.271 513.68,336.271C639.786,336.271 742.168,429.63 742.168,544.623C742.168,659.692 639.87,752.975 513.68,752.975Z" style="fill:rgb(235,235,235);fill-opacity:0;stroke:rgb(128,0,0);stroke-width:35px;"/>
            <path d="M57.626,602.996C101.807,631.958 151.515,658.547 203.637,681.097C354.163,746.22 505.737,769.681 589.7,740.851C505.737,769.681 354.163,746.22 203.637,681.097C151.515,658.547 101.807,631.958 57.626,602.996Z" style="fill:rgb(235,235,235);fill-opacity:0;stroke:rgb(128,0,0);stroke-width:35px;"/>
            <path d="M362.958,120.141C388.685,118.683 414.938,116.059 441.134,112.328C501.054,103.794 558.969,89.712 608.346,71.67C558.969,89.712 501.054,103.794 441.134,112.328C414.938,116.059 388.685,118.683 362.958,120.141Z" style="fill:rgb(235,235,235);fill-opacity:0;stroke:rgb(128,0,0);stroke-width:35px;"/>
            <path d="M400.568,358.462C425.22,342.867 449.237,324.684 471.767,304.562C552.793,232.195 606.239,142.39 610.557,71.359C606.239,142.39 552.793,232.195 471.767,304.562C449.237,324.684 425.22,342.867 400.568,358.462Z" style="fill:rgb(235,235,235);fill-opacity:0;stroke:rgb(128,0,0);stroke-width:35px;"/>
        </g>
    </g>
    <g transform="matrix(1,0,0,1,-14.8458,-35.0471)">
        <path d="M341.982,70.676C341.982,68.052 341.818,66.412 341.49,65.592C338.866,64.772 323.942,64.28 296.718,64.28C262.442,64.28 243.254,64.936 239.318,65.92C238.99,67.888 238.99,69.364 238.99,70.676C238.99,72.644 239.154,74.284 239.81,75.596C242.926,76.58 250.962,76.908 263.918,76.908C312.298,76.908 338.21,76.252 341.49,74.776C341.818,73.956 341.982,72.644 341.982,70.676ZM299.834,171.536C299.506,160.548 298.686,144.64 297.374,123.648C295.57,100.688 294.258,87.568 293.602,83.96C292.454,83.632 290.486,83.468 287.862,83.468C285.238,83.468 283.434,83.96 282.122,84.78C283.106,120.86 285.238,150.216 288.354,172.684C289.338,173.012 291.306,173.176 294.258,173.176C296.554,173.176 298.358,172.684 299.834,171.536Z" style="fill:rgb(128,0,0);fill-rule:nonzero;stroke:rgb(128,0,0);stroke-width:1px;stroke-linecap:butt;stroke-miterlimit:1.41421;"/>
        <path d="M422.342,140.212C422.342,129.388 418.406,120.696 410.698,113.808C407.746,114.956 405.45,117.088 403.646,120.204C408.566,126.108 411.026,132.668 411.026,139.72C411.026,143.656 409.878,147.264 407.582,150.708C404.958,154.316 402.17,157.104 399.218,159.072C400.366,161.04 401.186,162.352 401.514,163.008C401.842,163.828 402.662,165.14 403.974,167.108C408.894,165.468 413.322,162.024 417.094,156.776C420.538,151.692 422.342,146.116 422.342,140.212ZM402.99,108.56C398.398,105.28 392.822,103.64 386.262,103.64C375.438,103.968 366.582,107.74 359.858,115.12C353.954,122.172 351.002,130.372 351.002,139.72C351.002,149.068 354.118,157.268 360.514,164.156C366.746,170.716 374.782,173.832 384.786,173.832C389.378,173.832 393.314,172.848 396.43,170.716C396.102,167.436 395.282,164.648 393.642,162.188C390.69,163.172 387.738,163.664 384.786,163.664C378.554,163.664 373.47,161.368 369.206,156.776C364.942,151.856 362.974,146.116 362.974,139.884C362.974,133.488 364.778,127.912 368.55,122.992C373.306,117.088 379.21,114.136 386.426,113.972C390.526,113.972 394.626,115.12 398.89,117.252C399.546,116.596 400.202,115.448 401.022,113.808C402.17,112.168 402.826,110.528 402.99,108.56Z" style="fill:rgb(128,0,0);fill-rule:nonzero;stroke:rgb(128,0,0);stroke-width:1px;stroke-linecap:butt;stroke-miterlimit:1.41421;"/>
        <path d="M505.162,108.232C503.194,106.264 500.57,104.788 496.962,104.132C489.746,117.252 480.234,133.816 468.426,153.824C462.85,146.444 453.01,130.044 438.906,104.624C436.61,105.608 433.822,107.248 430.542,109.544C441.366,132.668 451.698,151.036 461.866,164.484C452.354,180.556 445.63,192.036 441.694,198.596C443.006,201.384 445.794,203.188 449.73,204.172C455.142,197.612 464.818,182.688 478.922,159.236C495.65,130.044 504.342,112.988 505.162,108.232Z" style="fill:rgb(128,0,0);fill-rule:nonzero;stroke:rgb(128,0,0);stroke-width:1px;stroke-linecap:butt;stroke-miterlimit:1.41421;"/>
        <path d="M588.638,139.556C587.654,117.088 577.65,105.28 558.298,104.296C549.114,104.46 541.406,107.084 535.174,112.004C535.174,114.628 536.158,117.58 538.29,120.532C545.014,117.416 551.082,115.776 556.494,115.448C569.286,115.94 576.174,123.648 576.994,138.736C576.666,153.988 569.614,161.696 555.674,161.86C551.902,161.86 546.49,160.22 539.274,156.94C538.126,158.252 537.47,159.4 537.142,160.548C536.65,161.532 536.158,163.336 535.666,165.96C542.226,170.88 549.114,173.176 556.166,173.176C577.158,172.848 587.982,161.696 588.638,139.556ZM529.926,158.58C529.926,147.92 529.598,131.356 529.106,108.888C528.614,80.352 528.45,65.592 528.45,64.28C526.154,63.788 524.35,63.46 522.874,63.46C521.89,63.46 520.086,63.624 517.79,63.788C516.97,67.56 516.642,83.14 516.642,110.692C516.642,148.74 517.298,169.404 518.774,172.684C518.938,173.012 520.742,173.176 524.186,173.176C525.498,173.176 527.138,172.848 529.434,172.192C529.762,171.536 529.926,166.944 529.926,158.58Z" style="fill:rgb(128,0,0);fill-rule:nonzero;stroke:rgb(128,0,0);stroke-width:1px;stroke-linecap:butt;stroke-miterlimit:1.41421;"/>
        <path d="M669.818,140.212C669.818,129.388 665.882,120.696 658.174,113.808C655.222,114.956 652.926,117.088 651.122,120.204C656.042,126.108 658.502,132.668 658.502,139.72C658.502,143.656 657.354,147.264 655.058,150.708C652.434,154.316 649.646,157.104 646.694,159.072C647.842,161.04 648.662,162.352 648.99,163.008C649.318,163.828 650.138,165.14 651.45,167.108C656.37,165.468 660.798,162.024 664.57,156.776C668.014,151.692 669.818,146.116 669.818,140.212ZM650.466,108.56C645.874,105.28 640.298,103.64 633.738,103.64C622.914,103.968 614.058,107.74 607.334,115.12C601.43,122.172 598.478,130.372 598.478,139.72C598.478,149.068 601.594,157.268 607.99,164.156C614.222,170.716 622.258,173.832 632.262,173.832C636.854,173.832 640.79,172.848 643.906,170.716C643.578,167.436 642.758,164.648 641.118,162.188C638.166,163.172 635.214,163.664 632.262,163.664C626.03,163.664 620.946,161.368 616.682,156.776C612.418,151.856 610.45,146.116 610.45,139.884C610.45,133.488 612.254,127.912 616.026,122.992C620.782,117.088 626.686,114.136 633.902,113.972C638.002,113.972 642.102,115.12 646.366,117.252C647.022,116.596 647.678,115.448 648.498,113.808C649.646,112.168 650.302,110.528 650.466,108.56Z" style="fill:rgb(128,0,0);fill-rule:nonzero;stroke:rgb(128,0,0);stroke-width:1px;stroke-linecap:butt;stroke-miterlimit:1.41421;"/>
        <path d="M745.094,165.796C734.27,156.284 725.414,148.084 718.362,141.196C721.478,137.916 726.726,131.684 734.106,122.664C739.354,116.104 742.306,112.004 742.798,110.036C741.158,107.576 738.862,105.608 735.582,104.296C729.35,110.2 720.822,119.548 709.834,132.176C698.354,119.056 690.318,109.708 685.562,104.296C682.61,104.788 679.986,106.592 678.018,109.544C682.61,118.072 690.318,128.568 701.47,141.196C693.106,151.856 686.71,160.548 682.446,167.436C684.414,170.552 686.874,172.684 689.826,173.668C698.026,164.484 704.914,156.776 710.49,150.544C723.774,163.008 733.45,170.552 739.682,173.34C740.666,173.012 741.814,171.864 743.454,170.06C744.438,168.42 745.094,166.944 745.094,165.796Z" style="fill:rgb(128,0,0);fill-rule:nonzero;stroke:rgb(128,0,0);stroke-width:1px;stroke-linecap:butt;stroke-miterlimit:1.41421;"/>
        <path d="M548.31,211.336C548.022,204.76 545.094,201.304 539.43,201.016C536.742,201.064 534.486,201.832 532.662,203.272C532.662,204.04 532.95,204.904 533.574,205.768C535.542,204.856 537.318,204.376 538.902,204.28C542.646,204.424 544.662,206.68 544.902,211.096C544.806,215.56 542.742,217.816 538.662,217.864C537.558,217.864 535.974,217.384 533.862,216.424C533.526,216.808 533.334,217.144 533.238,217.48C533.094,217.768 532.95,218.296 532.806,219.064C534.726,220.504 536.742,221.176 538.806,221.176C544.95,221.08 548.118,217.816 548.31,211.336ZM531.126,216.904C531.126,213.784 531.03,208.936 530.886,202.36C530.742,194.008 530.694,189.688 530.694,189.304C530.022,189.16 529.494,189.064 529.062,189.064C528.774,189.064 528.246,189.112 527.574,189.16C527.334,190.264 527.238,194.824 527.238,202.888C527.238,214.024 527.43,220.072 527.862,221.032C527.91,221.128 528.438,221.176 529.446,221.176C529.83,221.176 530.31,221.08 530.982,220.888C531.078,220.696 531.126,219.352 531.126,216.904Z" style="fill:rgb(128,0,0);fill-rule:nonzero;stroke:rgb(128,0,0);stroke-width:1px;stroke-linecap:butt;stroke-miterlimit:1.41421;"/>
        <path d="M572.55,202.168C571.974,201.592 571.206,201.16 570.15,200.968C568.038,204.808 565.254,209.656 561.798,215.512C560.166,213.352 557.286,208.552 553.158,201.112C552.486,201.4 551.67,201.88 550.71,202.552C553.878,209.32 556.902,214.696 559.878,218.632C557.094,223.336 555.126,226.696 553.974,228.616C554.358,229.432 555.174,229.96 556.326,230.248C557.91,228.328 560.742,223.96 564.87,217.096C569.766,208.552 572.31,203.56 572.55,202.168Z" style="fill:rgb(128,0,0);fill-rule:nonzero;stroke:rgb(128,0,0);stroke-width:1px;stroke-linecap:butt;stroke-miterlimit:1.41421;"/>
        <path d="M619.35,200.968C619.35,196.648 616.71,193.432 611.43,191.224C608.262,190.072 604.134,189.448 599.094,189.448C598.902,190.072 598.854,190.6 598.854,191.032C598.854,191.416 598.902,191.848 598.998,192.424C603.03,192.52 606.486,193.048 609.27,193.912C613.638,195.448 615.846,197.752 615.846,200.824C615.75,205.528 612.15,207.928 604.998,207.928C602.79,207.928 600.534,207.544 598.134,206.68C597.75,207.352 597.606,207.832 597.606,208.216C597.51,208.6 597.51,209.08 597.51,209.656C599.862,210.712 602.31,211.24 604.902,211.24C606.438,211.24 607.734,211.144 608.694,211C612.246,217.432 614.406,220.936 615.222,221.464C616.326,221.08 617.142,220.552 617.622,219.976C617.478,219.496 615.654,216.28 612.15,210.28C616.902,208.744 619.302,205.624 619.35,200.968ZM596.166,189.352C595.542,189.16 594.966,189.016 594.438,189.016C593.622,189.016 593.094,189.064 592.854,189.112C592.278,194.968 591.942,202.504 591.894,211.816C591.894,214.312 591.942,217.384 592.134,221.032C592.422,221.128 592.95,221.128 593.622,221.128C594.294,221.128 594.822,221.08 595.254,220.936C595.254,220.792 595.35,215.416 595.638,204.76C595.974,195.544 596.166,190.408 596.166,189.352Z" style="fill:rgb(128,0,0);fill-rule:nonzero;stroke:rgb(128,0,0);stroke-width:1px;stroke-linecap:butt;stroke-miterlimit:1.41421;"/>
        <path d="M643.35,211.528C643.35,208.36 642.198,205.816 639.942,203.8C639.078,204.136 638.406,204.76 637.878,205.672C639.318,207.4 640.038,209.32 640.038,211.384C640.038,212.536 639.702,213.592 639.03,214.6C638.262,215.656 637.446,216.472 636.582,217.048C636.918,217.624 637.158,218.008 637.254,218.2C637.35,218.44 637.59,218.824 637.974,219.4C639.414,218.92 640.71,217.912 641.814,216.376C642.822,214.888 643.35,213.256 643.35,211.528ZM637.686,202.264C636.342,201.304 634.71,200.824 632.79,200.824C629.622,200.92 627.03,202.024 625.062,204.184C623.334,206.248 622.47,208.648 622.47,211.384C622.47,214.12 623.382,216.52 625.254,218.536C627.078,220.456 629.43,221.368 632.358,221.368C633.702,221.368 634.854,221.08 635.766,220.456C635.67,219.496 635.43,218.68 634.95,217.96C634.086,218.248 633.222,218.392 632.358,218.392C630.534,218.392 629.046,217.72 627.798,216.376C626.55,214.936 625.974,213.256 625.974,211.432C625.974,209.56 626.502,207.928 627.606,206.488C628.998,204.76 630.726,203.896 632.838,203.848C634.038,203.848 635.238,204.184 636.486,204.808C636.678,204.616 636.87,204.28 637.11,203.8C637.446,203.32 637.638,202.84 637.686,202.264Z" style="fill:rgb(128,0,0);fill-rule:nonzero;stroke:rgb(128,0,0);stroke-width:1px;stroke-linecap:butt;stroke-miterlimit:1.41421;"/>
        <path d="M665.046,217.336C664.326,216.04 663.75,215.32 663.318,215.224C660.726,217.144 658.422,218.104 656.358,218.104C654.918,218.104 653.478,217.576 651.99,216.52C650.406,215.176 649.638,213.4 649.638,211.192C649.782,206.872 652.038,204.472 656.358,204.04C659.142,204.088 661.35,204.952 662.934,206.68C663.222,206.584 663.558,206.392 663.942,206.008C664.038,205.96 664.278,205.672 664.758,205.096C663.99,203.752 662.79,202.696 661.158,201.928C659.67,201.256 658.086,200.92 656.358,200.92C649.782,201.4 646.422,204.808 646.23,211.144C646.23,214.408 647.334,216.952 649.59,218.824C651.654,220.456 653.958,221.272 656.502,221.272C659.574,221.272 662.454,219.976 665.046,217.336Z" style="fill:rgb(128,0,0);fill-rule:nonzero;stroke:rgb(128,0,0);stroke-width:1px;stroke-linecap:butt;stroke-miterlimit:1.41421;"/>
        <path d="M674.502,190.84C674.166,190.552 673.446,190.216 672.39,189.736C671.334,189.352 670.566,189.112 670.134,189.112C669.462,190.072 669.03,191.08 668.886,192.136C669.078,192.424 669.798,192.808 670.95,193.24C672.102,193.72 672.918,193.912 673.398,193.912C674.07,192.568 674.406,191.512 674.502,190.84ZM673.398,211.24C673.398,205.288 673.302,202.024 673.11,201.352C672.678,201.16 672.15,201.016 671.478,201.016C670.71,201.016 670.182,201.112 669.846,201.208C669.654,201.784 669.558,204.712 669.558,210.04C669.558,216.712 669.702,220.408 670.086,221.08C670.326,221.176 670.854,221.224 671.67,221.224C672.342,221.224 672.87,221.128 673.254,220.936C673.35,220.36 673.398,217.096 673.398,211.24Z" style="fill:rgb(128,0,0);fill-rule:nonzero;stroke:rgb(128,0,0);stroke-width:1px;stroke-linecap:butt;stroke-miterlimit:1.41421;"/>
        <path d="M700.758,209.992C700.758,207.592 700.086,205.48 698.742,203.752C697.158,201.928 695.142,200.968 692.742,200.968C689.574,201.064 687.03,201.976 685.062,203.752C685.062,204.856 685.494,205.72 686.358,206.296C688.758,205.048 690.726,204.376 692.358,204.28C693.75,204.28 694.95,204.808 695.958,205.816C696.822,206.776 697.254,208.264 697.254,210.28C697.254,212.296 696.822,215.704 696.006,220.456C696.582,220.888 697.542,221.128 698.982,221.128C700.086,218.536 700.662,214.84 700.758,209.992ZM683.67,219.352C683.67,216.76 683.526,213.208 683.334,208.6C683.142,204.76 682.998,202.312 682.854,201.16C682.182,201.064 681.654,201.016 681.366,201.016C680.886,201.016 680.358,201.112 679.782,201.256C679.782,203.464 679.782,206.008 679.878,208.888C680.022,216.088 680.262,220.12 680.55,221.032C680.934,221.176 681.462,221.224 682.134,221.224C682.758,221.224 683.238,221.128 683.622,220.936C683.622,220.84 683.67,220.312 683.67,219.352Z" style="fill:rgb(128,0,0);fill-rule:nonzero;stroke:rgb(128,0,0);stroke-width:1px;stroke-linecap:butt;stroke-miterlimit:1.41421;"/>
        <path d="M724.902,219.496C724.902,217.384 724.806,214.12 724.614,209.704C724.422,205.192 724.134,202.504 723.798,201.64C723.75,201.544 723.27,201.448 722.358,201.448C721.686,201.544 721.158,201.64 720.822,201.784C720.822,204.328 720.966,208.36 721.35,213.88C718.854,216.664 716.358,218.056 713.91,218.056C712.086,218.056 710.598,217.48 709.398,216.232C708.15,214.888 707.574,213.256 707.574,211.336C707.574,209.176 708.246,207.4 709.638,206.056C710.982,204.856 712.374,204.232 713.862,204.184C715.494,204.184 717.078,204.856 718.566,206.152C719.238,205.672 719.718,205 720.006,204.04C718.47,202.024 716.406,201.016 713.862,201.016C711.318,201.064 709.11,201.88 707.286,203.512C705.174,205.528 704.118,208.168 704.118,211.336C704.118,214.408 705.126,216.952 707.238,218.92C709.062,220.456 711.27,221.176 713.862,221.176C716.55,221.176 719.142,219.928 721.638,217.336C721.638,217.96 721.734,219.16 722.022,220.984C722.694,220.984 723.654,220.984 724.854,220.936C724.854,220.408 724.902,219.928 724.902,219.496Z" style="fill:rgb(128,0,0);fill-rule:nonzero;stroke:rgb(128,0,0);stroke-width:1px;stroke-linecap:butt;stroke-miterlimit:1.41421;"/>
        <path d="M747.414,219.016C744.246,216.232 741.654,213.832 739.59,211.816C740.502,210.856 742.038,209.032 744.198,206.392C745.734,204.472 746.598,203.272 746.742,202.696C746.262,201.976 745.59,201.4 744.63,201.016C742.806,202.744 740.31,205.48 737.094,209.176C733.734,205.336 731.382,202.6 729.99,201.016C729.126,201.16 728.358,201.688 727.782,202.552C729.126,205.048 731.382,208.12 734.646,211.816C732.198,214.936 730.326,217.48 729.078,219.496C729.654,220.408 730.374,221.032 731.238,221.32C733.638,218.632 735.654,216.376 737.286,214.552C741.174,218.2 744.006,220.408 745.83,221.224C746.118,221.128 746.454,220.792 746.934,220.264C747.222,219.784 747.414,219.352 747.414,219.016Z" style="fill:rgb(128,0,0);fill-rule:nonzero;stroke:rgb(128,0,0);stroke-width:1px;stroke-linecap:butt;stroke-miterlimit:1.41421;"/>
    </g>
</svg>
